<svg xmlns="http://www.w3.org/2000/svg" x="0px" y="0px" width="100" height="100" viewBox="0 0 48 48">
<path d="M39.285,11c-1.052,0-2.086,0.357-2.913,1.008L24,21.729l-12.372-9.721C10.802,11.358,9.768,11,8.715,11	C6.115,11,4,13.115,4,15.715V38c0,1.654,1.346,3,3,3h7c0.552,0,1-0.447,1-1V27.113l8.377,6.669c0.364,0.29,0.878,0.291,1.243,0.003	L33,27.169V40c0,0.553,0.448,1,1,1h7c1.654,0,3-1.346,3-3V15.715C44,13.115,41.885,11,39.285,11z"></path><path fill="#fff" d="M36.99,10.794L24,21L11.01,10.794C10.356,10.28,9.548,10,8.715,10h0C6.663,10,5,11.663,5,13.715v2.16	V36c0,1.105,0.895,2,2,2h7V23.039L24,31l10-7.895V38h7c1.105,0,2-0.895,2-2V16v-2.285C43,11.663,41.337,10,39.285,10h0	C38.452,10,37.644,10.28,36.99,10.794z"></path><path d="M41,39h-7c-0.552,0-1-0.447-1-1V25.169l-8.38,6.616c-0.364,0.288-0.878,0.287-1.243-0.003L15,25.113V38c0,0.553-0.448,1-1,1	H7c-1.654,0-3-1.346-3-3V13.715C4,11.115,6.115,9,8.715,9c1.053,0,2.087,0.358,2.914,1.008L24,19.729l12.372-9.721	C37.198,9.357,38.232,9,39.285,9C41.885,9,44,11.115,44,13.715V36C44,37.654,42.654,39,41,39z M35,37h6c0.551,0,1-0.448,1-1V13.715	C42,12.218,40.782,11,39.285,11c-0.606,0-1.202,0.206-1.677,0.58c0,0,0,0,0,0l-12.99,10.206c-0.362,0.285-0.873,0.285-1.235,0	L10.393,11.58C9.917,11.206,9.321,11,8.715,11C7.218,11,6,12.218,6,13.715V36c0,0.552,0.449,1,1,1h6V23.039	c0-0.384,0.22-0.734,0.566-0.9c0.345-0.168,0.756-0.12,1.057,0.118l9.379,7.467l9.378-7.403c0.301-0.237,0.711-0.281,1.056-0.114	S35,22.723,35,23.105V37z M36.99,10.794H37H36.99z"></path><path d="M24,32c-0.22,0-0.44-0.072-0.623-0.218l-19-15.125c-0.432-0.344-0.503-0.973-0.159-1.405	c0.344-0.432,0.973-0.503,1.405-0.159l18.379,14.631L42.38,15.215c0.434-0.341,1.063-0.269,1.404,0.165	c0.342,0.434,0.269,1.063-0.165,1.405l-19,15C24.438,31.929,24.219,32,24,32z"></path><rect width="2" height="13" x="13" y="13"></rect><rect width="2" height="13" x="33" y="13"></rect>
</svg>